<svg height="2254" width="720" xmlns="http://www.w3.org/2000/svg">
<rect height="2254" fill="#555" width="720"></rect>
<text fill="#7f7" font-family="Courier New" font-size="12" xml:space="preserve">
<tspan x="10" y="26"></tspan>
<tspan x="10" y="42">&gt; npmdoc-utility2@0.0.1 test /home/travis/build/npmdoc/node-npmdoc-utility2</tspan>
<tspan x="10" y="58">&gt; (set -e; export PORT=$(utility2 shServerPortRandom); utility2 test test.js)</tspan>
<tspan x="10" y="74"></tspan>
<tspan x="10" y="90"></tspan>
<tspan x="10" y="106">[MODE_BUILD=npmTest] - 2017-03-25T12:50:10Z - npm-testing /home/travis/build/npmdoc/node-npmdoc-\</tspan>
<tspan x="10" y="122">utility2</tspan>
<tspan x="10" y="138"></tspan>
<tspan x="10" y="154"></tspan>
<tspan x="10" y="170">covering $ /home/travis/.nvm/versions/node/v6.10.1/bin/node /home/travis/build/npmdoc/node-npmdo\</tspan>
<tspan x="10" y="186">c-utility2/test.js</tspan>
<tspan x="10" y="202">merging file:///home/travis/build/npmdoc/node-npmdoc-utility2/tmp/build/test-report.json to test\</tspan>
<tspan x="10" y="218">-report</tspan>
<tspan x="10" y="234">&gt; server listening on http-port 45683</tspan>
<tspan x="10" y="250">created apidoc file:///home/travis/build/npmdoc/node-npmdoc-utility2/tmp/build/apidoc.html</tspan>
<tspan x="10" y="266"></tspan>
<tspan x="10" y="282"></tspan>
<tspan x="10" y="298">browserTest - created electron entry-page /home/travis/build/npmdoc/node-npmdoc-utility2/tmp/ele\</tspan>
<tspan x="10" y="314">ctron.15b058457e30.946b3efa37de5.html</tspan>
<tspan x="10" y="330"></tspan>
<tspan x="10" y="346">Xlib:  extension "RANDR" missing on display ":99.0".</tspan>
<tspan x="10" y="362"></tspan>
<tspan x="10" y="378">/home/travis/build/npmdoc/node-npmdoc-utility2/node_modules/utility2/lib.utility2.sh.html.js</tspan>
<tspan x="10" y="394"> #1 Line too long.</tspan>
<tspan x="10" y="410">    process.stdout.write('export npm_package_' + key.replace((/\W/g), '_') + '=' + JSON.stringif\</tspan>
<tspan x="10" y="426">y(value) + ';'); // Line 1445, Pos 116</tspan>
<tspan x="10" y="442"></tspan>
<tspan x="10" y="458">merging file:///home/travis/build/npmdoc/node-npmdoc-utility2/tmp/build/test-report.json to test\</tspan>
<tspan x="10" y="474">-report</tspan>
<tspan x="10" y="490">Xlib:  extension "RANDR" missing on display ":99.0".</tspan>
<tspan x="10" y="506">[4842:0325/125011:WARNING:audio_manager.cc(314)] Multiple instances of AudioManager detected</tspan>
<tspan x="10" y="522">[4842:0325/125011:WARNING:audio_manager.cc(275)] Multiple instances of AudioManager detected</tspan>
<tspan x="10" y="538">[4862:0325/125011:ERROR:sandbox_linux.cc(343)] InitializeSandbox() called with multiple threads \</tspan>
<tspan x="10" y="554">in process gpu-process. </tspan>
<tspan x="10" y="570">[4842:0325/125011:ERROR:browser_gpu_channel_host_factory.cc(131)] Failed to create channel.</tspan>
<tspan x="10" y="586"></tspan>
<tspan x="10" y="602">browserTest - opened url file:///home/travis/build/npmdoc/node-npmdoc-utility2/tmp/build/apidoc.\</tspan>
<tspan x="10" y="618">html</tspan>
<tspan x="10" y="634"></tspan>
<tspan x="10" y="650">[node test-case 1 of 6 passed] - testCase_buildLib_default</tspan>
<tspan x="10" y="666">[node test-case 2 of 6 passed] - testCase_buildReadme_default</tspan>
<tspan x="10" y="682">[node test-case 3 of 6 passed] - testCase_buildTest_default</tspan>
<tspan x="10" y="698"></tspan>
<tspan x="10" y="714">browserTest - created electron entry-page /home/travis/build/npmdoc/node-npmdoc-utility2/tmp/ele\</tspan>
<tspan x="10" y="730">ctron.15b05846e5a0.a242b3a54ae27.html</tspan>
<tspan x="10" y="746"></tspan>
<tspan x="10" y="762">Xlib:  extension "RANDR" missing on display ":99.0".</tspan>
<tspan x="10" y="778"></tspan>
<tspan x="10" y="794">browserTest - created screen-capture file:///home/travis/build/npmdoc/node-npmdoc-utility2/tmp/b\</tspan>
<tspan x="10" y="810">uild/screen-capture.npmTest.browser._2Fhome_2Ftravis_2Fbuild_2Fnpmdoc_2Fnode-npmdoc-utility2_2Ft\</tspan>
<tspan x="10" y="826">mp_2Fbuild_2Fapidoc.html.png</tspan>
<tspan x="10" y="842"></tspan>
<tspan x="10" y="858">&gt; server listening on http-port 59905</tspan>
<tspan x="10" y="874"></tspan>
<tspan x="10" y="890">browserTest - exit-code 0 - file:///home/travis/build/npmdoc/node-npmdoc-utility2/tmp/build/apid\</tspan>
<tspan x="10" y="906">oc.html</tspan>
<tspan x="10" y="922"></tspan>
<tspan x="10" y="938">[node test-case 4 of 6 passed] - testCase_buildApidoc_default</tspan>
<tspan x="10" y="954"></tspan>
<tspan x="10" y="970">/home/travis/build/npmdoc/node-npmdoc-utility2/node_modules/utility2/lib.utility2.sh.html.js</tspan>
<tspan x="10" y="986"> #1 Line too long.</tspan>
<tspan x="10" y="1002">    process.stdout.write('export npm_package_' + key.replace((/\W/g), '_') + '=' + JSON.stringif\</tspan>
<tspan x="10" y="1018">y(value) + ';'); // Line 1445, Pos 116</tspan>
<tspan x="10" y="1034"></tspan>
<tspan x="10" y="1050">merging file:///home/travis/build/npmdoc/node-npmdoc-utility2/tmp/build/test-report.json to test\</tspan>
<tspan x="10" y="1066">-report</tspan>
<tspan x="10" y="1082">Xlib:  extension "RANDR" missing on display ":99.0".</tspan>
<tspan x="10" y="1098">[4907:0325/125017:WARNING:audio_manager.cc(314)] Multiple instances of AudioManager detected</tspan>
<tspan x="10" y="1114">[4907:0325/125017:WARNING:audio_manager.cc(275)] Multiple instances of AudioManager detected</tspan>
<tspan x="10" y="1130">[4931:0325/125017:ERROR:sandbox_linux.cc(343)] InitializeSandbox() called with multiple threads \</tspan>
<tspan x="10" y="1146">in process gpu-process. </tspan>
<tspan x="10" y="1162">[4907:0325/125017:ERROR:browser_gpu_channel_host_factory.cc(131)] Failed to create channel.</tspan>
<tspan x="10" y="1178"></tspan>
<tspan x="10" y="1194">browserTest - opened url http://127.0.0.1:45683?modeTest=1</tspan>
<tspan x="10" y="1210"></tspan>
<tspan x="10" y="1226">[4907:0325/125019:INFO:CONSOLE(203)] "----------|-----------|-----------|-----------|-----------\</tspan>
<tspan x="10" y="1242">|</tspan>
<tspan x="10" y="1258">File      |   % Stmts |% Branches |   % Funcs |   % Lines |</tspan>
<tspan x="10" y="1274">----------|-----------|-----------|-----------|-----------|</tspan>
<tspan x="10" y="1290">----------|-----------|-----------|-----------|-----------|</tspan>
<tspan x="10" y="1306">All files |       100 |       100 |       100 |       100 |</tspan>
<tspan x="10" y="1322">----------|-----------|-----------|-----------|-----------|</tspan>
<tspan x="10" y="1338">", source: file:///home/travis/build/npmdoc/node-npmdoc-utility2/tmp/electron.15b05846e5a0.a242b\</tspan>
<tspan x="10" y="1354">3a54ae27.html (203)</tspan>
<tspan x="10" y="1370">[4907:0325/125019:INFO:CONSOLE(203)] "created coverage file:///tmp/build/coverage.html/index.htm\</tspan>
<tspan x="10" y="1386">l", source: file:///home/travis/build/npmdoc/node-npmdoc-utility2/tmp/electron.15b05846e5a0.a242\</tspan>
<tspan x="10" y="1402">b3a54ae27.html (203)</tspan>
<tspan x="10" y="1418">[node test-case 5 of 6 passed] - testCase_buildApp_default</tspan>
<tspan x="10" y="1434"></tspan>
<tspan x="10" y="1450">browserTest - created screen-capture file:///home/travis/build/npmdoc/node-npmdoc-utility2/tmp/b\</tspan>
<tspan x="10" y="1466">uild/screen-capture.npmTest.browser..png</tspan>
<tspan x="10" y="1482"></tspan>
<tspan x="10" y="1498"></tspan>
<tspan x="10" y="1514">browserTest - exit-code 0 - http://127.0.0.1:45683?modeTest=1</tspan>
<tspan x="10" y="1530"></tspan>
<tspan x="10" y="1546"></tspan>
<tspan x="10" y="1562">browserTest - merged coverage from /home/travis/build/npmdoc/node-npmdoc-utility2/tmp/coverage.n\</tspan>
<tspan x="10" y="1578">pmTest.browser.%2F.json</tspan>
<tspan x="10" y="1594"></tspan>
<tspan x="10" y="1610"></tspan>
<tspan x="10" y="1626">browserTest - merging test-report from /home/travis/build/npmdoc/node-npmdoc-utility2/tmp/test-r\</tspan>
<tspan x="10" y="1642">eport.npmTest.browser.%2F.json</tspan>
<tspan x="10" y="1658"></tspan>
<tspan x="10" y="1674">[node test-case 6 of 6 passed] - testCase_webpage_default</tspan>
<tspan x="10" y="1690">-----------------------------|-----------|-----------|-----------|-----------|</tspan>
<tspan x="10" y="1706">File                         |   % Stmts |% Branches |   % Funcs |   % Lines |</tspan>
<tspan x="10" y="1722">-----------------------------|-----------|-----------|-----------|-----------|</tspan>
<tspan x="10" y="1738">   node-npmdoc-utility2/     |       100 |       100 |       100 |       100 |</tspan>
<tspan x="10" y="1754">      example.js             |       100 |       100 |       100 |       100 |</tspan>
<tspan x="10" y="1770">      lib.npmdoc_utility2.js |       100 |       100 |       100 |       100 |</tspan>
<tspan x="10" y="1786">      test.js                |       100 |       100 |       100 |       100 |</tspan>
<tspan x="10" y="1802">-----------------------------|-----------|-----------|-----------|-----------|</tspan>
<tspan x="10" y="1818">All files                    |       100 |       100 |       100 |       100 |</tspan>
<tspan x="10" y="1834">-----------------------------|-----------|-----------|-----------|-----------|</tspan>
<tspan x="10" y="1850"></tspan>
<tspan x="10" y="1866">created coverage file:///home/travis/build/npmdoc/node-npmdoc-utility2/tmp/build/coverage.html/i\</tspan>
<tspan x="10" y="1882">ndex.html</tspan>
<tspan x="10" y="1898"></tspan>
<tspan x="10" y="1914">/home/travis/build/npmdoc/node-npmdoc-utility2/node_modules/utility2/lib.utility2.sh.html.js</tspan>
<tspan x="10" y="1930"> #1 Line too long.</tspan>
<tspan x="10" y="1946">    process.stdout.write('export npm_package_' + key.replace((/\W/g), '_') + '=' + JSON.stringif\</tspan>
<tspan x="10" y="1962">y(value) + ';'); // Line 1445, Pos 116</tspan>
<tspan x="10" y="1978"></tspan>
<tspan x="10" y="1994">merging file:///home/travis/build/npmdoc/node-npmdoc-utility2/tmp/build/test-report.json to test\</tspan>
<tspan x="10" y="2010">-report</tspan>
<tspan x="10" y="2026"></tspan>
<tspan x="10" y="2042">-------------------------------------------------------</tspan>
<tspan x="10" y="2058">| test-report - buildNpmdoc - node - linux v6.10.1 - 2017-03-25T12:49:59.951Z</tspan>
<tspan x="10" y="2074">|   21407 ms            0 failed        6 passed      |</tspan>
<tspan x="10" y="2090">-------------------------------------------------------</tspan>
<tspan x="10" y="2106"></tspan>
<tspan x="10" y="2122">created test-report file:///home/travis/build/npmdoc/node-npmdoc-utility2/tmp/build/test-report.\</tspan>
<tspan x="10" y="2138">html</tspan>
<tspan x="10" y="2154"></tspan>
<tspan x="10" y="2170"></tspan>
<tspan x="10" y="2186">npmTest - 0 failed tests</tspan>
<tspan x="10" y="2202"></tspan>
<tspan x="10" y="2218"></tspan>
<tspan x="10" y="2234">[MODE_BUILD=npmTest] - 2017-03-25T12:50:24Z - EXIT_CODE - 0</tspan>
</text>
</svg>
